<?xml version="1.0" encoding="UTF-8"?>
<svg width="137px" height="53px" viewBox="0 0 137 53" version="1.1" xmlns="http://www.w3.org/2000/svg" xmlns:xlink="http://www.w3.org/1999/xlink">
    <!-- Generator: Sketch 43.2 (39069) - http://www.bohemiancoding.com/sketch -->
    <title>Group</title>
    <desc>Created with Sketch.</desc>
    <defs></defs>
    <g id="Page-1" stroke="none" stroke-width="1" fill="none" fill-rule="evenodd">
        <g id="Group" transform="translate(-0.139241, 0.000000)" fill-rule="nonzero" fill="#FFFFFF">
            <path d="M131.781125,26.7409091 C131.797581,35.0774314 129.759434,43.29099 125.84495,50.6631818 L126.717204,50.6631818 C134.640352,35.3879132 134.48628,17.2121306 126.305307,2.07181818 L125.360364,2.07181818 C129.565492,9.62219619 131.774701,18.1101581 131.781125,26.7409091 L131.781125,26.7409091 Z M136.142396,26.765 C136.155404,35.8069487 133.942714,44.7146825 129.697406,52.7109091 L130.642349,52.7109091 C139.242851,36.142907 139.079707,16.42507 130.206221,-2.27373675e-13 L129.23705,-2.27373675e-13 C133.77512,8.19870357 136.150769,17.4066778 136.142396,26.765 Z" id="Shape"></path>
            <path d="M11.6723799,2.04772727 L11.6723799,2.04772727 C3.35365312,17.1547521 3.20806808,35.4027514 11.2847114,50.6390909 L10.4124571,50.6390909 C2.47333097,35.3697855 2.61837272,17.189883 10.8001257,2.04772727 L11.6723799,2.04772727 Z M7.84415298,0 L7.84415298,0 C-1.17566023,16.3896102 -1.33033856,36.1839248 7.43225514,52.7109091 L6.48731304,52.7109091 C-2.12162648,36.1449086 -1.95844793,16.4229306 6.92344017,0 L7.84415298,0 Z" id="Shape"></path>
        </g>
    </g>
</svg>