<?xml version="1.0" encoding="UTF-8"?>
<svg width="113px" height="10px" viewBox="0 0 113 10" version="1.1" xmlns="http://www.w3.org/2000/svg" xmlns:xlink="http://www.w3.org/1999/xlink">
    <!-- Generator: Sketch 43.2 (39069) - http://www.bohemiancoding.com/sketch -->
    <title>1</title>
    <desc>Created with Sketch.</desc>
    <defs></defs>
    <g id="Page-1" stroke="none" stroke-width="1" fill="none" fill-rule="evenodd">
        <g id="1" fill-rule="nonzero" fill="#FFFFFF">
            <path d="M0,0.505183946 L4.55332684,0.505183946 L4.55332684,2.02534448 L1.52536449,2.02534448 L1.52536449,9.58076923 L5.75029944e-14,9.58076923 L5.75029944e-14,2.02534448 L5.75029944e-14,0.505183946 L0,0.505183946 Z M5.80549172,9.45597993 L7.3194729,8.0606087 L11.8727997,8.0606087 L11.8727997,9.58076923 L5.80549172,9.58076923 L5.80549172,9.45597993 L5.80549172,9.45597993 Z M5.80549172,0.505183946 L11.8727997,0.505183946 L11.8727997,2.02534448 L7.3194729,2.02534448 L5.80549172,0.505183946 Z M5.80549172,4.2942408 L7.3194729,4.2942408 L11.8727997,4.2942408 L11.8727997,5.80305686 L7.3194729,5.80305686 L5.80549172,5.80305686 L5.80549172,4.2942408 Z M14.5592626,8.0606087 L19.1125894,8.0606087 L19.1125894,9.58076923 L13.0452814,9.58076923 L14.5592626,8.0606087 Z M13.0452814,0.505183946 L14.5592626,0.505183946 L14.5592626,0.754762542 L14.5592626,6.00725753 L13.0452814,7.52741806 L13.0452814,0.754762542 L13.0452814,0.505183946 L13.0452814,0.505183946 Z M20.0574047,9.45597993 L21.5713859,8.0606087 L26.1247128,8.0606087 L26.1247128,9.58076923 L20.0574047,9.58076923 L20.0574047,9.45597993 L20.0574047,9.45597993 Z M20.0574047,0.505183946 L26.1247128,0.505183946 L26.1247128,2.02534448 L21.5713859,2.02534448 L20.0574047,0.505183946 Z M20.0574047,4.2942408 L21.5713859,4.2942408 L26.1247128,4.2942408 L26.1247128,5.80305686 L21.5713859,5.80305686 L20.0574047,5.80305686 L20.0574047,4.2942408 L20.0574047,4.2942408 Z M27.2971944,2.61525753 L27.2971944,0.505183946 L31.8619046,5.04297659 L36.4152314,0.505183946 L36.4152314,9.58076923 L34.9126336,9.58076923 L34.9126336,4.15810702 L31.8619046,7.18708361 L27.2971944,2.61525753 Z M38.1568789,9.45597993 L39.6708601,8.0606087 L44.224187,8.0606087 L44.224187,9.58076923 L38.1568789,9.58076923 L38.1568789,9.45597993 L38.1568789,9.45597993 Z M38.1568789,0.505183946 L44.224187,0.505183946 L44.224187,2.02534448 L39.6708601,2.02534448 L38.1568789,0.505183946 Z M38.1568789,4.2942408 L39.6708601,4.2942408 L44.224187,4.2942408 L44.224187,5.80305686 L39.6708601,5.80305686 L38.1568789,5.80305686 L38.1568789,4.2942408 Z M45.3966686,0.505183946 L49.9499955,0.505183946 L49.9499955,2.02534448 L46.9220331,2.02534448 L46.9220331,9.58076923 L45.3966686,9.58076923 L45.3966686,2.02534448 L45.3966686,0.505183946 L45.3966686,0.505183946 Z M57.6906511,5.23583278 C57.3377683,5.74633445 56.8938189,6.10935786 56.358803,6.32490301 L58.225667,9.58076923 L56.4840195,9.58076923 L53.8430899,5.03163211 L55.1977046,5.04297659 C55.6075041,5.04297659 55.9603869,4.89549833 56.2563531,4.60054181 C56.5637027,4.30558528 56.7116858,3.94256187 56.7116858,3.52281605 C56.7116858,3.11441472 56.5637027,2.76273579 56.2563531,2.46777926 C55.9603869,2.17282274 55.6075041,2.02534448 55.1977046,2.02534448 L52.158359,2.02534448 L51.9876092,1.85517726 L51.2021603,0.505183946 L55.1977046,0.505183946 C56.0286868,0.505183946 56.7458358,0.800140468 57.3377683,1.39005351 C57.9297007,1.99131104 58.225667,2.6946689 58.225667,3.52281605 C58.225667,4.15810702 58.0549172,4.7253311 57.6906511,5.23583278 L57.6906511,5.23583278 Z M65.3630068,5.04297659 L64.3954249,6.27952508 L64.3954249,6.2681806 L61.8114119,9.58076923 L59.8648647,9.58076923 L63.4392262,5.04297659 L59.8648647,0.505183946 L61.8114119,0.505183946 L64.3954249,3.81777258 L66.9908212,0.505183946 L68.9146018,0.505183946 L65.3630068,5.04297659 Z M64.3954249,6.2681806 L64.3954249,6.27952508 L61.8114119,9.58076923 L64.3954249,6.2681806 Z M78.6359546,7.79968562 C79.0229873,7.61817391 79.3644869,7.36859532 79.6604531,7.03960535 L81.1744343,7.53876254 C80.9695346,7.84506355 80.7304849,8.12867559 80.445902,8.37825418 C80.1727024,8.62783278 79.8767361,8.84337793 79.5466199,9.02488963 C79.227887,9.20640134 78.8863875,9.34253512 78.5107381,9.43329097 C78.1464719,9.5353913 77.7708225,9.58076923 77.3724064,9.58076923 C76.1088582,9.58076923 75.0502097,9.12698997 74.1623109,8.2421204 C73.2744122,7.35725084 72.8190795,6.30221405 72.8190795,5.04297659 C72.8190795,3.79508361 73.2630289,2.72870234 74.1623109,1.84383278 C75.0388264,0.947618729 76.1088582,0.505183946 77.3724064,0.505183946 C77.9984888,0.505183946 78.5904213,0.618628763 79.1482038,0.856862876 C79.6946031,1.09509699 80.1840857,1.42408696 80.6052684,1.84383278 L79.51247,2.91021405 C78.9205375,2.320301 78.2147718,2.02534448 77.3724064,2.02534448 C76.5414242,2.02534448 75.8242752,2.30895652 75.2209594,2.91021405 C74.6290269,3.50012709 74.344444,4.21482943 74.344444,5.04297659 C74.344444,5.87112375 74.6290269,6.59717057 75.2209594,7.18708361 C75.8128919,7.77699666 76.5414242,8.0606087 77.3724064,8.0606087 C77.827739,8.0606087 78.2489218,7.96985284 78.6359546,7.79968562 L78.6359546,7.79968562 Z M77.3724064,5.80305686 L77.3724064,4.2942408 L81.1744343,4.2942408 L79.6604531,5.80305686 L77.3724064,5.80305686 L77.3724064,5.80305686 Z M82.779482,9.45597993 L84.2934632,8.0606087 L88.84679,8.0606087 L88.84679,9.58076923 L82.779482,9.58076923 L82.779482,9.45597993 L82.779482,9.45597993 Z M82.779482,0.505183946 L88.84679,0.505183946 L88.84679,2.02534448 L84.2934632,2.02534448 L82.779482,0.505183946 Z M82.779482,4.2942408 L84.2934632,4.2942408 L88.84679,4.2942408 L88.84679,5.80305686 L84.2934632,5.80305686 L82.779482,5.80305686 L82.779482,4.2942408 Z M90.0192717,9.45597993 L91.5332528,8.0606087 L96.0865797,8.0606087 L96.0865797,9.58076923 L90.0192717,9.58076923 L90.0192717,9.45597993 L90.0192717,9.45597993 Z M90.0192717,0.505183946 L96.0865797,0.505183946 L96.0865797,2.02534448 L91.5332528,2.02534448 L90.0192717,0.505183946 Z M90.0192717,4.2942408 L91.5332528,4.2942408 L96.0865797,4.2942408 L96.0865797,5.80305686 L91.5332528,5.80305686 L90.0192717,5.80305686 L90.0192717,4.2942408 Z M97.8965271,5.67826756 L101.835155,9.58076923 L97.8965271,5.67826756 Z M101.835155,0.505183946 L97.8965271,4.4190301 L97.8965271,4.4190301 L101.835155,0.505183946 Z M103.975218,0.505183946 L99.4218916,5.04297659 L103.975218,9.58076923 L101.835155,9.58076923 L97.8965271,5.67826756 L97.8965271,5.67826756 L97.2590613,5.05432107 L97.8965271,4.4190301 L97.8965271,4.4190301 L101.835155,0.505183946 L103.975218,0.505183946 L103.975218,0.505183946 Z M110.201893,5.80305686 L107.936613,5.80305686 C107.196697,5.80305686 106.570615,5.54213378 106.058365,5.03163211 C105.546116,4.50978595 105.2843,3.88583946 105.2843,3.14844816 C105.2843,2.42240134 105.546116,1.80979933 106.058365,1.28795318 C106.570615,0.766107023 107.196697,0.505183946 107.936613,0.505183946 L107.936613,2.02534448 C107.777246,2.02534448 107.629263,2.04803344 107.492663,2.10475585 C107.34468,2.16147826 107.230847,2.24088963 107.117014,2.35433445 C107.014564,2.45643478 106.934881,2.58122408 106.877964,2.71735786 C106.821048,2.85349164 106.798281,3.0009699 106.798281,3.14844816 C106.798281,3.46609365 106.900731,3.72701672 107.117014,3.95390635 C107.34468,4.18079599 107.606497,4.2942408 107.936613,4.2942408 L110.201893,4.2942408 C110.941809,4.2942408 111.567891,4.55516388 112.08014,5.06566555 C112.603773,5.58751171 112.865589,6.21145819 112.865589,6.93750502 C112.865589,7.66355184 112.603773,8.28749833 112.08014,8.80934448 C111.567891,9.31984615 110.941809,9.58076923 110.201893,9.58076923 L110.201893,8.0606087 C110.361259,8.0606087 110.509242,8.03791973 110.645842,7.98119732 C110.793825,7.92447492 110.919042,7.84506355 111.021492,7.74296321 C111.123942,7.64086288 111.203625,7.52741806 111.260541,7.3799398 C111.317458,7.24380602 111.351608,7.09632776 111.351608,6.93750502 C111.351608,6.63120401 111.226391,6.37028094 111.010108,6.1433913 C110.782442,5.91650167 110.520626,5.80305686 110.201893,5.80305686 L110.201893,5.80305686 Z" id="Shape"></path>
        </g>
    </g>
</svg>